<svg xmlns="http://www.w3.org/2000/svg" viewBox="0 0 64 64" width="64" height="64">
  <defs>
    <linearGradient id="bg-gradient" x1="0%" y1="0%" x2="100%" y2="100%">
      <stop offset="0%" style="stop-color:#ffffff;stop-opacity:1" />
      <stop offset="100%" style="stop-color:#f0f2f5;stop-opacity:1" />
    </linearGradient>
    <linearGradient id="ketchup-gradient" x1="0%" y1="0%" x2="100%" y2="0%">
      <stop offset="0%" style="stop-color:#ff8585;stop-opacity:1" />
      <stop offset="100%" style="stop-color:#ff4d4d;stop-opacity:1" />
    </linearGradient>
    <clipPath id="bottle-clip">
      <path d="M 22 24 C 22 24, 16 30, 16 40 C 16 50, 16 58, 16 58 C 16 60, 18 62, 20 62 L 44 62 C 46 62, 48 60, 48 58 C 48 58, 48 50, 48 40 C 48 30, 42 24, 42 24 L 38 16 L 26 16 Z" />
    </clipPath>
  </defs>

  <!-- Bottle Group (Maximized, No Background) -->
  <g transform="translate(-1.6, -1.6) scale(1.05)">
    <!-- Bottle interior (white background for clarity) -->
    <path d="M 22 24 C 22 24, 16 30, 16 40 C 16 50, 16 58, 16 58 C 16 60, 18 62, 20 62 L 44 62 C 46 62, 48 60, 48 58 C 48 58, 48 50, 48 40 C 48 30, 42 24, 42 24 L 38 16 L 26 16 Z" fill="#ffffff" />

    <!-- Ketchup liquid (gradient fill) -->
    <g clip-path="url(#bottle-clip)">
      <rect id="ketchup-liquid" x="0" y="16" width="64" height="48" fill="url(#ketchup-gradient)" />
    </g>

    <!-- Bottle Cap (gold) - Flat design -->
    <path d="M 25 8 L 39 8 L 39 16 L 25 16 Z" fill="#ffd700" />
    <path d="M 28 2 L 36 2 L 36 8 L 28 8 Z" fill="#ffd700" />
  </g>
</svg>