<svg xmlns="http://www.w3.org/2000/svg" viewBox="0 0 64 64" width="64" height="64">
  <defs>
    <clipPath id="bottle-clip">
      <!-- Bottle interior shape for clipping the ketchup liquid -->
      <path d="M 22 24 C 22 24, 16 30, 16 40 C 16 50, 16 58, 16 58 C 16 60, 18 62, 20 62 L 44 62 C 46 62, 48 60, 48 58 C 48 58, 48 50, 48 40 C 48 30, 42 24, 42 24 L 38 16 L 26 16 Z" />
    </clipPath>
  </defs>

  <!-- Ketchup liquid (red fill) -->
  <g clip-path="url(#bottle-clip)">
    <rect id="ketchup-liquid" x="0" y="16" width="64" height="48" fill="#ff4d4d" />
  </g>

  <!-- Bottle Outline (transparent body with white/gray stroke) -->
  <path d="M 22 24 C 22 24, 16 30, 16 40 C 16 50, 16 58, 16 58 C 16 60, 18 62, 20 62 L 44 62 C 46 62, 48 60, 48 58 C 48 58, 48 50, 48 40 C 48 30, 42 24, 42 24 L 38 16 L 26 16 Z" fill="none" stroke="#e0e0e0" stroke-width="2" />
  
  <!-- Bottle Cap (gold) -->
  <path d="M 25 8 L 39 8 L 39 16 L 25 16 Z" fill="#ffd700" stroke="#ccaa00" stroke-width="1" />
  <path d="M 28 2 L 36 2 L 36 8 L 28 8 Z" fill="#ffd700" stroke="#ccaa00" stroke-width="1" />
</svg>